Coordinates
version=1
nRows=26
nColumns=22
inDegrees=yes

Units are S.I. units (second, meters, Newtons, ...)
If the header above contains a line with 'inDegrees', this indicates whether rotational values are in degrees (yes) or radians (no).

endheader
time	pelvis_tilt	pelvis_list	pelvis_rotation	pelvis_tx	pelvis_ty	pelvis_tz	hip_flexion_r	hip_adduction_r	hip_rotation_r	knee_angle_r	ankle_angle_r	subtalar_angle_r	hip_flexion_l	hip_adduction_l	hip_rotation_l	knee_angle_l	ankle_angle_l	subtalar_angle_l	lumbar_extension	lumbar_bending	lumbar_rotation
      0.01000000	     -2.38226741	     -8.02560746	      2.68021669	      1.10533523	      0.96499641	     -0.33210280	      4.50833208	      8.29605103	     -1.81344214	    -14.11085938	      9.30511478	      1.09358151	      2.56237349	     -8.65315557	      2.09137218	     -9.83525686	     12.59059797	     -1.39323960	      2.20608025	      6.81825671	     -7.06941179
      0.02000000	     -2.40092931	     -8.02304765	      2.72432065	      1.10533896	      0.96501021	     -0.33227716	      4.52508569	      8.28097923	     -1.85211123	    -14.10213816	      9.30117442	      1.11400641	      2.53230335	     -8.64530954	      2.04072805	     -9.72083951	     12.55456511	     -1.38393372	      2.23800285	      6.81523726	     -7.12718634
      0.03000000	     -2.39998124	     -7.99718307	      2.77736840	      1.10535546	      0.96506180	     -0.33247516	      4.52204141	      8.23988629	     -1.90159464	    -14.09923827	      9.29575613	      1.16637685	      2.47226049	     -8.60949271	      2.05876863	     -9.59407234	     12.45958705	     -1.35917694	      2.24841299	      6.78282514	     -7.16040832
      0.04000000	     -2.40330220	     -7.99344982	      2.80573858	      1.10540739	      0.96508233	     -0.33263869	      4.51517594	      8.22599343	     -1.91994222	    -14.08552204	      9.29714950	      1.18050391	      2.44425464	     -8.59905904	      2.02457574	     -9.52978976	     12.45750630	     -1.35731763	      2.26864505	      6.77861749	     -7.19264200
      0.05000000	     -2.35279737	     -7.97264768	      2.84394235	      1.10549701	      0.96517768	     -0.33282804	      4.44464286	      8.19385771	     -1.95663497	    -14.06570977	      9.29555247	      1.23370352	      2.34953448	     -8.56902686	      2.05906641	     -9.45556319	     12.40137637	     -1.34647386	      2.22728456	      6.75798039	     -7.21150360
      0.06000000	     -2.30068140	     -7.97380986	      2.86243303	      1.10561775	      0.96525183	     -0.33296938	      4.36391266	      8.18973344	     -1.96715055	    -14.03366838	      9.29899107	      1.27177159	      2.27716987	     -8.56572937	      2.05574686	     -9.43505562	     12.41669445	     -1.35696507	      2.18898710	      6.76210446	     -7.21820058
      0.07000000	     -2.29706220	     -7.97635234	      2.86391200	      1.10569271	      0.96526305	     -0.33308298	      4.35651947	      8.18595989	     -1.96724798	    -14.03675130	      9.29855962	      1.27213586	      2.27144974	     -8.56116368	      2.05796674	     -9.44040533	     12.41558656	     -1.35699818	      2.20013562	      6.76705976	     -7.21540609
      0.08000000	     -2.23566519	     -7.96170389	      2.89112001	      1.10581055	      0.96534324	     -0.33323701	      4.26382575	      8.16372368	     -1.99663471	    -14.00034370	      9.29727365	      1.29176330	      2.19763243	     -8.53878828	      2.10530911	     -9.43574172	     12.41716240	     -1.36934604	      2.14897128	      6.75435595	     -7.22202985
      0.09000000	     -2.23184484	     -7.96392693	      2.89337855	      1.10588095	      0.96534677	     -0.33334125	      4.25703334	      8.16027080	     -1.99666725	    -14.00381708	      9.29753252	      1.29195023	      2.19244474	     -8.53472421	      2.10689727	     -9.44084504	     12.41621455	     -1.36956399	      2.15952683	      6.75952015	     -7.21828910
      0.10000000	     -2.21889127	     -7.95807796	      2.90314509	      1.10593835	      0.96535801	     -0.33346451	      4.23250224	      8.14628880	     -2.01394361	    -13.99042264	      9.30487151	      1.29490252	      2.18100776	     -8.52098655	      2.12518436	     -9.45043309	     12.41777139	     -1.37338896	      2.15592441	      6.75665272	     -7.19156217
      0.11000000	     -2.21478609	     -7.95868703	      2.91127711	      1.10598578	      0.96535486	     -0.33356850	      4.22803560	      8.14155606	     -2.01282310	    -13.99533174	      9.30466061	      1.29521944	      2.17559221	     -8.51612011	      2.12519079	     -9.45148255	     12.41812566	     -1.37389752	      2.16406677	      6.76006303	     -7.19081850
      0.12000000	     -2.19390579	     -7.92437871	      2.93586924	      1.10604632	      0.96537010	     -0.33371708	      4.20381219	      8.09450674	     -2.05754337	    -14.00050601	      9.32135022	      1.30309145	      2.13579999	     -8.47124813	      2.15706820	     -9.42283739	     12.42592147	     -1.38463736	      2.15319602	      6.72495789	     -7.19695399
      0.13000000	     -2.19108312	     -7.92539553	      2.94767865	      1.10606710	      0.96536108	     -0.33382546	      4.20228248	      8.09011607	     -2.05533547	    -14.00490472	      9.32205613	      1.30327086	      2.13361783	     -8.46665939	      2.15600424	     -9.42203388	     12.42429728	     -1.38498988	      2.15819320	      6.73056291	     -7.19403910
      0.14000000	     -2.18855759	     -7.92549578	      2.95987852	      1.10608688	      0.96534987	     -0.33392818	      4.20102572	      8.08497052	     -2.05497787	    -14.00966785	      9.32331478	      1.30342587	      2.13135463	     -8.46148893	      2.15614651	     -9.41996260	     12.42337640	     -1.38551155	      2.16405582	      6.73418220	     -7.18965984
      0.15000000	     -2.18943858	     -7.89990596	      2.97680069	      1.10611859	      0.96533416	     -0.33404421	      4.21143357	      8.04806668	     -2.09775062	    -14.03101340	      9.35020623	      1.30612245	      2.11627732	     -8.42674436	      2.19483735	     -9.39302554	     12.41487459	     -1.39407171	      2.17484564	      6.70727450	     -7.16655658
      0.16000000	     -2.18708408	     -7.90011133	      2.98926130	      1.10614233	      0.96532378	     -0.33413886	      4.21033090	      8.04397804	     -2.09522230	    -14.03613540	      9.35059538	      1.30619589	      2.11461836	     -8.42232191	      2.19359997	     -9.39244062	     12.41416365	     -1.39467499	      2.18138846	      6.71133026	     -7.16415141
      0.17000000	     -2.18497046	     -7.89987998	      3.00201581	      1.10616795	      0.96531395	     -0.33423005	      4.20923008	      8.03954853	     -2.09405693	    -14.04118328	      9.35156122	      1.30617640	      2.11295578	     -8.41779336	      2.19369398	     -9.39113567	     12.41369617	     -1.39532466	      2.18897047	      6.71432308	     -7.15953902
      0.18000000	     -2.19370125	     -7.87966799	      3.01747555	      1.10619795	      0.96529237	     -0.33433388	      4.22423173	      8.01001065	     -2.12664489	    -14.05632988	      9.37566809	      1.30641645	      2.10975451	     -8.38915637	      2.23153363	     -9.36929835	     12.40485412	     -1.40426467	      2.20971824	      6.69246008	     -7.13083105
      0.19000000	     -2.19165466	     -7.87973672	      3.03096375	      1.10621552	      0.96528554	     -0.33443327	      4.22395670	      8.00560548	     -2.12363610	    -14.06174042	      9.37591486	      1.30640085	      2.10885763	     -8.38462943	      2.22978241	     -9.36778068	     12.40382007	     -1.40491593	      2.21575915	      6.69765663	     -7.12848545
      0.20000000	     -2.18993048	     -7.87958414	      3.04472756	      1.10623002	      0.96528039	     -0.33453679	      4.22414180	      8.00093116	     -2.12171720	    -14.06696666	      9.37671557	      1.30633533	      2.10804750	     -8.37947496	      2.22910544	     -9.36512078	     12.40257182	     -1.40554200	      2.22230092	      6.70274946	     -7.12415353
      0.21000000	     -2.20315285	     -7.86246377	      3.05942671	      1.10623666	      0.96526012	     -0.33465047	      4.25212769	      7.97416679	     -2.14919197	    -14.09311350	      9.39909892	      1.30724026	      2.10656011	     -8.35385796	      2.26412224	     -9.33401174	     12.38042655	     -1.41423309	      2.24478835	      6.68635662	     -7.09981988
      0.22000000	     -2.20164332	     -7.86275838	      3.07283263	      1.10624124	      0.96525702	     -0.33477399	      4.25282390	      7.96870285	     -2.14593146	    -14.09733034	      9.39915590	      1.30726687	      2.10691781	     -8.34761704	      2.26183364	     -9.33213168	     12.37992851	     -1.41482795	      2.24839246	      6.69526196	     -7.09753205
      0.23000000	     -2.20019070	     -7.86327376	      3.08848098	      1.10624196	      0.96525679	     -0.33490490	      4.25464882	      7.96291703	     -2.14320549	    -14.10232193	      9.39944780	      1.30732092	      2.10733208	     -8.34134430	      2.26017096	     -9.32861906	     12.37961738	     -1.41525851	      2.25166126	      6.70439716	     -7.09318849
      0.24000000	     -2.19916129	     -7.86363287	      3.10498541	      1.10624070	      0.96525679	     -0.33503733	      4.25730112	      7.95706406	     -2.14146435	    -14.10811041	      9.39990735	      1.30744200	      2.10791081	     -8.33509019	      2.25951572	     -9.32371934	     12.37979954	     -1.41542614	      2.25388471	      6.71435443	     -7.08704093
      0.25000000	     -2.20248506	     -7.86252437	      3.12189027	      1.10622862	      0.96524939	     -0.33517139	      4.28316384	      7.94635321	     -2.17089356	    -14.14499950	      9.40965358	      1.31204642	      2.10335311	     -8.32611311	      2.29169552	     -9.30154816	     12.38467576	     -1.41340911	      2.25808381	      6.72094389	     -7.05698909
      0.26000000	     -2.20194886	     -7.86302824	      3.14005509	      1.10623803	      0.96525470	     -0.33531341	      4.28440106	      7.93967750	     -2.16862135	    -14.14836935	      9.40987981	      1.31227979	      2.10461525	     -8.31948934	      2.28930424	     -9.29742933	     12.38580521	     -1.41301531	      2.25906034	      6.73396213	     -7.05153384
